# xmcd CD database file
#
# Track frame offsets:
#	150
#	12729
#	28464
#	41674
#	56149
#	71390
#	86282
#	99817
#	113779
#	128311
#	141564
#	155501
#	167209
#	180876
#	195165
#	208861
#	222043
#	234833
#
# Disc length: 3297 seconds
#
# Revision: 3
# Processed by: cddbd v1.5.1PL0 Copyright (c) Steve Scherf et al.
# Submitted via: CDex 1.51
#
DISCID=ee0cdf12
DTITLE=John Lee "Sonny Boy" Williamson - Nothing But The Blues - John Lee Williamson CD2
DYEAR=1900
DGENRE=Blues
TTITLE0=Early In The Morning
TTITLE1=Decoration Blues
TTITLE2=Sugar Mama
TTITLE3=Susie-Q
TTITLE4=The Right Kind Of Life
TTITLE5=Collector Man Blues
TTITLE6=Skinny Woman
TTITLE7=Down South
TTITLE8=Low Down Ways
TTITLE9=I'm Tired Trucking My Blues Away
TTITLE10=Blue Bird Blues
TTITLE11=Got The Battle Up And Gone
TTITLE12=Lord, Oh Lord Blues
TTITLE13=Goodbye Red
TTITLE14=Honey Bee Blues
TTITLE15=Thinking My Blues Away
TTITLE16=Tell Me Baby
TTITLE17=Good Gravy
EXTD=
EXTT0=
EXTT1=
EXTT2=
EXTT3=
EXTT4=
EXTT5=
EXTT6=
EXTT7=
EXTT8=
EXTT9=
EXTT10=
EXTT11=
EXTT12=
EXTT13=
EXTT14=
EXTT15=
EXTT16=
EXTT17=
PLAYORDER=
